<svg width="40" height="41" viewBox="0 0 40 41" fill="none" xmlns="http://www.w3.org/2000/svg">
<g id="Awards Icon" filter="url(#filter0_dd_117_362)">
<g id="ranking">
<path id="Vector" d="M15.2825 32.2291H5.83337C5.25254 32.2291 4.77087 31.7475 4.77087 31.1666V22.6666C4.77087 20.5133 6.51337 18.7708 8.66671 18.7708H15.2825C15.8634 18.7708 16.345 19.2525 16.345 19.8333V31.1666C16.345 31.7475 15.8634 32.2291 15.2825 32.2291ZM6.89587 30.1041H14.22V20.8958H8.66671C7.68921 20.8958 6.89587 21.6891 6.89587 22.6666V30.1041Z" fill="white"/>
<path id="Vector_2" d="M24.7177 32.2292H15.2686C14.6877 32.2292 14.2061 31.7475 14.2061 31.1667V17C14.2061 14.8467 15.9486 13.1042 18.1019 13.1042H21.8844C24.0377 13.1042 25.7802 14.8467 25.7802 17V31.1667C25.7802 31.7475 25.3127 32.2292 24.7177 32.2292ZM16.3452 30.1042H23.6694V17C23.6694 16.0225 22.8761 15.2292 21.8986 15.2292H18.1161C17.1386 15.2292 16.3452 16.0225 16.3452 17V30.1042Z" fill="white"/>
<path id="Vector_3" d="M34.1668 32.2291H24.7177C24.1368 32.2291 23.6552 31.7475 23.6552 31.1666V24.0833C23.6552 23.5025 24.1368 23.0208 24.7177 23.0208H31.3335C33.4868 23.0208 35.2293 24.7633 35.2293 26.9166V31.1666C35.2293 31.7475 34.7476 32.2291 34.1668 32.2291ZM25.7802 30.1041H33.1043V26.9166C33.1043 25.9391 32.311 25.1458 31.3335 25.1458H25.7802V30.1041Z" fill="white"/>
<path id="Vector_4" d="M22.4082 11.8292C22.0682 11.8292 21.6432 11.73 21.1616 11.4466L19.9999 10.7525L18.8524 11.4325C17.6907 12.1267 16.9257 11.7158 16.6424 11.5175C16.3591 11.3192 15.7499 10.6958 16.0474 9.3925L16.3166 8.21664L15.3532 7.25332C14.7582 6.65832 14.5457 5.94998 14.7582 5.29831C14.9707 4.64664 15.5516 4.1933 16.3732 4.05164L17.6057 3.83915L18.2999 2.45084C19.0649 0.935006 20.9207 0.935006 21.6716 2.45084L22.3657 3.83915L23.5982 4.05164C24.4199 4.1933 25.0149 4.64664 25.2132 5.29831C25.4257 5.94998 25.1991 6.65832 24.6182 7.25332L23.6549 8.21664L23.9241 9.3925C24.2216 10.71 23.6124 11.3192 23.3291 11.5317C23.2016 11.645 22.8757 11.8292 22.4082 11.8292ZM19.9999 8.61331C20.3399 8.61331 20.6799 8.69834 20.9632 8.86834L21.7566 9.33582L21.5866 8.57081C21.4449 7.97581 21.6574 7.25332 22.0966 6.81415L22.8191 6.09164L21.9266 5.93583C21.3599 5.83666 20.8074 5.42583 20.5524 4.91583L19.9999 3.85333L19.4616 4.91583C19.2066 5.42583 18.6541 5.83666 18.0874 5.93583L17.1949 6.0775L17.9174 6.79997C18.3566 7.23914 18.5549 7.96167 18.4274 8.55667L18.2574 9.32164L19.0507 8.85416C19.3199 8.68416 19.6599 8.61331 19.9999 8.61331Z" fill="white"/>
</g>
</g>
<defs>
<filter id="filter0_dd_117_362" x="0.770874" y="1.31396" width="38.4584" height="38.9152" filterUnits="userSpaceOnUse" color-interpolation-filters="sRGB">
<feFlood flood-opacity="0" result="BackgroundImageFix"/>
<feColorMatrix in="SourceAlpha" type="matrix" values="0 0 0 0 0 0 0 0 0 0 0 0 0 0 0 0 0 0 127 0" result="hardAlpha"/>
<feOffset dy="4"/>
<feGaussianBlur stdDeviation="2"/>
<feComposite in2="hardAlpha" operator="out"/>
<feColorMatrix type="matrix" values="0 0 0 0 0 0 0 0 0 0 0 0 0 0 0 0 0 0 0.25 0"/>
<feBlend mode="normal" in2="BackgroundImageFix" result="effect1_dropShadow_117_362"/>
<feColorMatrix in="SourceAlpha" type="matrix" values="0 0 0 0 0 0 0 0 0 0 0 0 0 0 0 0 0 0 127 0" result="hardAlpha"/>
<feOffset dy="4"/>
<feGaussianBlur stdDeviation="2"/>
<feComposite in2="hardAlpha" operator="out"/>
<feColorMatrix type="matrix" values="0 0 0 0 0 0 0 0 0 0 0 0 0 0 0 0 0 0 0.25 0"/>
<feBlend mode="normal" in2="effect1_dropShadow_117_362" result="effect2_dropShadow_117_362"/>
<feBlend mode="normal" in="SourceGraphic" in2="effect2_dropShadow_117_362" result="shape"/>
</filter>
</defs>
</svg>
