<svg width="34" height="34" viewBox="0 0 34 34" fill="none" xmlns="http://www.w3.org/2000/svg">
<g id="vuesax/outline/book">
<g id="book">
<path id="Vector" d="M17 31.28C16.575 31.28 16.15 31.1808 15.7958 30.9825C13.1466 29.5375 8.48581 28.0075 5.56748 27.625L5.15665 27.5683C3.30081 27.3416 1.77081 25.5991 1.77081 23.715V6.60164C1.77081 5.48247 2.20998 4.46247 3.01748 3.7258C3.82498 2.98914 4.87331 2.63497 5.97831 2.73414C9.09498 2.97497 13.7983 4.5333 16.4616 6.20497L16.8016 6.4033C16.9008 6.45997 17.1133 6.45997 17.1983 6.41747L17.425 6.2758C20.0883 4.60414 24.7916 3.01747 27.9225 2.7483C27.9508 2.7483 28.0641 2.7483 28.0925 2.7483C29.1266 2.64914 30.1891 3.01747 30.9825 3.75414C31.79 4.4908 32.2291 5.5108 32.2291 6.62997V23.7291C32.2291 25.6275 30.6991 27.3558 28.8291 27.5825L28.3616 27.6391C25.4433 28.0216 20.7683 29.5658 18.1758 30.9966C17.8358 31.195 17.425 31.28 17 31.28ZM5.63831 4.84497C5.18498 4.84497 4.77415 5.0008 4.44831 5.2983C4.09415 5.62414 3.89581 6.09164 3.89581 6.60164V23.715C3.89581 24.5508 4.61831 25.3583 5.42581 25.4716L5.85081 25.5283C9.03831 25.9533 13.9258 27.5541 16.7591 29.0983C16.8866 29.155 17.0708 29.1691 17.1416 29.1408C19.975 27.5683 24.8908 25.9533 28.0925 25.5283L28.5741 25.4716C29.3816 25.3725 30.1041 24.5508 30.1041 23.715V6.6158C30.1041 6.09164 29.9058 5.6383 29.5516 5.2983C29.1833 4.97247 28.7158 4.81664 28.1916 4.84497C28.1633 4.84497 28.05 4.84497 28.0216 4.84497C25.3158 5.0858 20.9525 6.54497 18.5725 8.03247L18.3458 8.1883C17.5666 8.66997 16.4616 8.66997 15.7108 8.20247L15.3708 8.00414C12.9483 6.51664 8.58498 5.07164 5.80831 4.84497C5.75165 4.84497 5.69498 4.84497 5.63831 4.84497Z" fill="white"/>
<path id="Vector_2" d="M17 30.09C16.4192 30.09 15.9375 29.6084 15.9375 29.0275V7.77753C15.9375 7.19669 16.4192 6.71503 17 6.71503C17.5808 6.71503 18.0625 7.19669 18.0625 7.77753V29.0275C18.0625 29.6225 17.5808 30.09 17 30.09Z" fill="white"/>
<path id="Vector_3" d="M10.9792 13.09H7.79169C7.21085 13.09 6.72919 12.6084 6.72919 12.0275C6.72919 11.4467 7.21085 10.965 7.79169 10.965H10.9792C11.56 10.965 12.0417 11.4467 12.0417 12.0275C12.0417 12.6084 11.56 13.09 10.9792 13.09Z" fill="white"/>
<path id="Vector_4" d="M12.0417 17.34H7.79169C7.21085 17.34 6.72919 16.8584 6.72919 16.2775C6.72919 15.6967 7.21085 15.215 7.79169 15.215H12.0417C12.6225 15.215 13.1042 15.6967 13.1042 16.2775C13.1042 16.8584 12.6225 17.34 12.0417 17.34Z" fill="white"/>
</g>
</g>
</svg>
