<svg width="38" height="42" viewBox="0 0 38 42" fill="none" xmlns="http://www.w3.org/2000/svg">
<g id="Events Icon" filter="url(#filter0_dd_117_372)">
<g id="calendar-add">
<path id="Vector" d="M12.3334 8.14581C11.7525 8.14581 11.2709 7.66415 11.2709 7.08331V2.83331C11.2709 2.25248 11.7525 1.77081 12.3334 1.77081C12.9142 1.77081 13.3959 2.25248 13.3959 2.83331V7.08331C13.3959 7.66415 12.9142 8.14581 12.3334 8.14581Z" fill="white"/>
<path id="Vector_2" d="M23.6666 8.14581C23.0858 8.14581 22.6041 7.66415 22.6041 7.08331V2.83331C22.6041 2.25248 23.0858 1.77081 23.6666 1.77081C24.2475 1.77081 24.7291 2.25248 24.7291 2.83331V7.08331C24.7291 7.66415 24.2475 8.14581 23.6666 8.14581Z" fill="white"/>
<path id="Vector_3" d="M13.0417 20.5417C12.8575 20.5417 12.6733 20.5133 12.5033 20.4283C12.3333 20.3575 12.1775 20.2583 12.0358 20.1308C11.7808 19.8616 11.625 19.4933 11.625 19.125C11.625 18.9408 11.6675 18.7567 11.7383 18.5867C11.8092 18.4167 11.9083 18.2608 12.0358 18.1192C12.1775 17.9917 12.3333 17.8925 12.5033 17.8216C13.0133 17.6091 13.6508 17.7225 14.0475 18.1192C14.175 18.2608 14.2742 18.4167 14.345 18.5867C14.4158 18.7567 14.4583 18.9408 14.4583 19.125C14.4583 19.4933 14.3025 19.8616 14.0475 20.1308C13.7783 20.3858 13.41 20.5417 13.0417 20.5417Z" fill="white"/>
<path id="Vector_4" d="M18 20.5417C17.6317 20.5417 17.2634 20.3858 16.9942 20.1308C16.8667 19.9892 16.7675 19.8333 16.6967 19.6633C16.6259 19.4933 16.5834 19.3092 16.5834 19.125C16.5834 18.7567 16.7392 18.3883 16.9942 18.1192C17.3909 17.7225 18.0142 17.595 18.5384 17.8217C18.7084 17.8925 18.8642 17.9917 19.0059 18.1192C19.2609 18.3883 19.4167 18.7567 19.4167 19.125C19.4167 19.3092 19.3884 19.4933 19.3034 19.6633C19.2325 19.8333 19.1334 19.9892 19.0059 20.1308C18.8642 20.2583 18.7084 20.3575 18.5384 20.4284C18.3684 20.5134 18.1842 20.5417 18 20.5417Z" fill="white"/>
<path id="Vector_5" d="M13.0417 25.5C12.8575 25.5 12.6733 25.4575 12.5033 25.3867C12.3333 25.3158 12.1775 25.2166 12.0358 25.0891C11.7808 24.82 11.625 24.4658 11.625 24.0833C11.625 23.8991 11.6675 23.715 11.7383 23.545C11.8092 23.3608 11.9083 23.2192 12.0358 23.0775C12.1775 22.95 12.3333 22.8508 12.5033 22.78C13.0133 22.5533 13.6508 22.6808 14.0475 23.0775C14.175 23.2192 14.2742 23.3608 14.345 23.545C14.4158 23.715 14.4583 23.8991 14.4583 24.0833C14.4583 24.4658 14.3025 24.82 14.0475 25.0891C13.7783 25.3441 13.41 25.5 13.0417 25.5Z" fill="white"/>
<path id="Vector_6" d="M30.0417 13.9399H5.95837C5.37754 13.9399 4.89587 13.4583 4.89587 12.8774C4.89587 12.2966 5.37754 11.8149 5.95837 11.8149H30.0417C30.6225 11.8149 31.1042 12.2966 31.1042 12.8774C31.1042 13.4583 30.6225 13.9399 30.0417 13.9399Z" fill="white"/>
<path id="Vector_7" d="M26.5 33.6458C22.7884 33.6458 19.7709 30.6283 19.7709 26.9167C19.7709 23.205 22.7884 20.1875 26.5 20.1875C30.2117 20.1875 33.2292 23.205 33.2292 26.9167C33.2292 30.6283 30.2117 33.6458 26.5 33.6458ZM26.5 22.3125C23.9642 22.3125 21.8959 24.3808 21.8959 26.9167C21.8959 29.4525 23.9642 31.5208 26.5 31.5208C29.0359 31.5208 31.1042 29.4525 31.1042 26.9167C31.1042 24.3808 29.0359 22.3125 26.5 22.3125Z" fill="white"/>
<path id="Vector_8" d="M28.6108 28.0499H24.375C23.7942 28.0499 23.3125 27.5683 23.3125 26.9874C23.3125 26.4066 23.7942 25.9249 24.375 25.9249H28.6108C29.1917 25.9249 29.6733 26.4066 29.6733 26.9874C29.6733 27.5683 29.2058 28.0499 28.6108 28.0499Z" fill="white"/>
<path id="Vector_9" d="M26.5 30.2174C25.9192 30.2174 25.4375 29.7358 25.4375 29.1549V24.9191C25.4375 24.3383 25.9192 23.8566 26.5 23.8566C27.0808 23.8566 27.5625 24.3383 27.5625 24.9191V29.1549C27.5625 29.7358 27.0808 30.2174 26.5 30.2174Z" fill="white"/>
<path id="Vector_10" d="M22.7742 32.2291H12.3333C7.1625 32.2291 4.1875 29.2541 4.1875 24.0833V12.0416C4.1875 6.87081 7.1625 3.89581 12.3333 3.89581H23.6667C28.8375 3.89581 31.8125 6.87081 31.8125 12.0416V23.1766C31.8125 23.6158 31.5433 24.0125 31.1183 24.1683C30.7075 24.3241 30.24 24.2108 29.9425 23.8708C29.0642 22.8792 27.8033 22.3125 26.4858 22.3125C23.95 22.3125 21.8817 24.3808 21.8817 26.9166C21.8817 27.7525 22.1083 28.5742 22.5475 29.2825C22.7883 29.7075 23.1 30.0616 23.44 30.3591C23.78 30.6425 23.9075 31.11 23.7517 31.535C23.6242 31.9458 23.2275 32.2291 22.7742 32.2291ZM12.3333 6.02081C8.28167 6.02081 6.3125 7.98998 6.3125 12.0416V24.0833C6.3125 28.135 8.28167 30.1041 12.3333 30.1041H20.5783C20.0542 29.1408 19.7708 28.05 19.7708 26.9166C19.7708 23.205 22.7883 20.1875 26.5 20.1875C27.6192 20.1875 28.7242 20.4708 29.6875 20.995V12.0416C29.6875 7.98998 27.7183 6.02081 23.6667 6.02081H12.3333Z" fill="white"/>
</g>
</g>
<defs>
<filter id="filter0_dd_117_372" x="0.1875" y="1.77081" width="37.0417" height="39.875" filterUnits="userSpaceOnUse" color-interpolation-filters="sRGB">
<feFlood flood-opacity="0" result="BackgroundImageFix"/>
<feColorMatrix in="SourceAlpha" type="matrix" values="0 0 0 0 0 0 0 0 0 0 0 0 0 0 0 0 0 0 127 0" result="hardAlpha"/>
<feOffset dy="4"/>
<feGaussianBlur stdDeviation="2"/>
<feComposite in2="hardAlpha" operator="out"/>
<feColorMatrix type="matrix" values="0 0 0 0 0 0 0 0 0 0 0 0 0 0 0 0 0 0 0.25 0"/>
<feBlend mode="normal" in2="BackgroundImageFix" result="effect1_dropShadow_117_372"/>
<feColorMatrix in="SourceAlpha" type="matrix" values="0 0 0 0 0 0 0 0 0 0 0 0 0 0 0 0 0 0 127 0" result="hardAlpha"/>
<feOffset dy="4"/>
<feGaussianBlur stdDeviation="2"/>
<feComposite in2="hardAlpha" operator="out"/>
<feColorMatrix type="matrix" values="0 0 0 0 0 0 0 0 0 0 0 0 0 0 0 0 0 0 0.25 0"/>
<feBlend mode="normal" in2="effect1_dropShadow_117_372" result="effect2_dropShadow_117_372"/>
<feBlend mode="normal" in="SourceGraphic" in2="effect2_dropShadow_117_372" result="shape"/>
</filter>
</defs>
</svg>
