<svg width="34" height="34" viewBox="0 0 34 34" fill="none" xmlns="http://www.w3.org/2000/svg">
<g id="vuesax/outline/people">
<g id="people">
<path id="Vector" d="M25.4997 11.2059C25.4572 11.2059 25.4289 11.2059 25.3864 11.2059H25.3156C22.6381 11.1209 20.6406 9.05254 20.6406 6.50254C20.6406 3.89587 22.7656 1.78503 25.3581 1.78503C27.9506 1.78503 30.0756 3.91004 30.0756 6.50254C30.0614 9.0667 28.0639 11.135 25.5139 11.22C25.5139 11.2059 25.5139 11.2059 25.4997 11.2059ZM25.3581 3.89588C23.9272 3.89588 22.7656 5.05754 22.7656 6.48838C22.7656 7.89088 23.8564 9.02421 25.2589 9.08088C25.2731 9.06671 25.3864 9.06671 25.5139 9.08088C26.8881 9.01005 27.9506 7.87671 27.9647 6.48838C27.9647 5.05754 26.8031 3.89588 25.3581 3.89588Z" fill="white"/>
<path id="Vector_2" d="M25.5142 21.6467C24.9617 21.6467 24.4092 21.6042 23.8567 21.505C23.2759 21.4059 22.8934 20.8534 22.9925 20.2725C23.0917 19.6917 23.6442 19.3092 24.225 19.4084C25.9675 19.7059 27.8092 19.3801 29.0417 18.5584C29.7075 18.1192 30.0617 17.5667 30.0617 17.0142C30.0617 16.4617 29.6934 15.9234 29.0417 15.4842C27.8092 14.6625 25.9392 14.3367 24.1825 14.6484C23.6017 14.7617 23.0492 14.365 22.95 13.7842C22.8509 13.2034 23.2334 12.6509 23.8142 12.5517C26.1234 12.1409 28.5175 12.58 30.2175 13.7134C31.4642 14.5492 32.1867 15.7392 32.1867 17.0142C32.1867 18.275 31.4784 19.4792 30.2175 20.3292C28.9284 21.1792 27.2567 21.6467 25.5142 21.6467Z" fill="white"/>
<path id="Vector_3" d="M8.45749 11.2058C8.44333 11.2058 8.42916 11.2058 8.42916 11.2058C5.87916 11.1208 3.88166 9.05247 3.86749 6.50247C3.86749 3.89581 5.9925 1.77081 8.585 1.77081C11.1775 1.77081 13.3025 3.89582 13.3025 6.48832C13.3025 9.05248 11.305 11.1208 8.75499 11.2058L8.45749 10.1433L8.55666 11.2058C8.52833 11.2058 8.48583 11.2058 8.45749 11.2058ZM8.59916 9.08082C8.68416 9.08082 8.755 9.08081 8.84 9.09498C10.1008 9.03831 11.2058 7.90497 11.2058 6.50247C11.2058 5.07164 10.0442 3.90997 8.61333 3.90997C7.1825 3.90997 6.02083 5.07164 6.02083 6.50247C6.02083 7.89081 7.09749 9.00998 8.47166 9.09498C8.48583 9.08081 8.54249 9.08082 8.59916 9.08082Z" fill="white"/>
<path id="Vector_4" d="M8.44331 21.6467C6.70081 21.6467 5.02915 21.1792 3.73998 20.3292C2.49331 19.4934 1.77081 18.2892 1.77081 17.0142C1.77081 15.7534 2.49331 14.5492 3.73998 13.7134C5.43998 12.58 7.83415 12.1409 10.1433 12.5517C10.7241 12.6509 11.1066 13.2034 11.0075 13.7842C10.9083 14.365 10.3558 14.7617 9.77498 14.6484C8.01832 14.3367 6.16248 14.6625 4.91581 15.4842C4.24998 15.9234 3.89581 16.4617 3.89581 17.0142C3.89581 17.5667 4.26415 18.1192 4.91581 18.5584C6.14831 19.3801 7.98998 19.7059 9.73248 19.4084C10.3133 19.3092 10.8658 19.7059 10.965 20.2725C11.0641 20.8534 10.6816 21.4059 10.1008 21.505C9.54832 21.6042 8.99581 21.6467 8.44331 21.6467Z" fill="white"/>
<path id="Vector_5" d="M16.9997 21.7883C16.9572 21.7883 16.9289 21.7883 16.8864 21.7883H16.8156C14.1381 21.7033 12.1406 19.635 12.1406 17.085C12.1406 14.4783 14.2656 12.3675 16.8581 12.3675C19.4506 12.3675 21.5756 14.4925 21.5756 17.085C21.5614 19.6492 19.5639 21.7175 17.0139 21.8025C17.0139 21.7883 17.0139 21.7883 16.9997 21.7883ZM16.8581 14.4783C15.4272 14.4783 14.2656 15.64 14.2656 17.0708C14.2656 18.4733 15.3564 19.6067 16.7589 19.6633C16.7731 19.6492 16.8864 19.6492 17.0139 19.6633C18.3881 19.5925 19.4506 18.4592 19.4647 17.0708C19.4647 15.6542 18.3031 14.4783 16.8581 14.4783Z" fill="white"/>
<path id="Vector_6" d="M16.9997 32.2433C15.2997 32.2433 13.5997 31.8041 12.2822 30.9116C11.0355 30.0758 10.313 28.8858 10.313 27.6108C10.313 26.35 11.0214 25.1316 12.2822 24.2958C14.9314 22.5391 19.0822 22.5391 21.7172 24.2958C22.9639 25.1316 23.6864 26.3216 23.6864 27.5966C23.6864 28.8574 22.9781 30.0758 21.7172 30.9116C20.3997 31.79 18.6997 32.2433 16.9997 32.2433ZM13.4581 26.0808C12.7922 26.52 12.438 27.0724 12.438 27.6249C12.438 28.1774 12.8064 28.7158 13.4581 29.1549C15.3706 30.4441 18.6147 30.4441 20.5272 29.1549C21.1931 28.7158 21.5472 28.1633 21.5472 27.6108C21.5472 27.0583 21.1789 26.52 20.5272 26.0808C18.6289 24.7916 15.3847 24.8058 13.4581 26.0808Z" fill="white"/>
</g>
</g>
</svg>
